<?xml version="1.0" standalone="no"?>
<!DOCTYPE svg PUBLIC "-//W3C//DTD SVG 1.1//EN" "http://www.w3.org/Graphics/SVG/1.1/DTD/svg11.dtd" >
<svg xmlns="http://www.w3.org/2000/svg">
<metadata>
This is a custom SVG webfont generated by Font Squirrel.
Copyright   : Copyright c 199297 HewlettPackard All rights reserved
</metadata>
<defs>
<font id="webfontF4sPGoxl" horiz-adv-x="0" >
<font-face units-per-em="2048" ascent="1638" descent="-410" />
<missing-glyph horiz-adv-x="567" />
<glyph unicode=" "  horiz-adv-x="567" />
<glyph unicode="&#x09;" horiz-adv-x="567" />
<glyph unicode="&#xa0;" horiz-adv-x="567" />
<glyph unicode="!" horiz-adv-x="604" d="M227 391v1120h152v-1120h-152zM227 258h152v-258h-152v258z" />
<glyph unicode="&#x22;" horiz-adv-x="633" d="M99 911l-25 604h166l-25 -604h-116zM418 911l-25 604h166l-25 -604h-116z" />
<glyph unicode="#" horiz-adv-x="1135" d="M558 1515l-61 -425h254l61 425h142l-61 -426h173v-138h-192l-56 -389h194v-138h-213l-61 -425h-142l61 425h-254l-61 -425h-142l61 426h-193v138h212l56 389h-214v138h233l61 425h142zM477 952l-55 -390h255l55 390h-255z" />
<glyph unicode="$" horiz-adv-x="1135" d="M830 1114q-14 125 -73.5 185.5t-170.5 60.5q-116 0 -181 -61.5t-65 -171.5q0 -98 60 -156q59 -57 202 -96q199 -54 297 -156q97 -101 97 -252q0 -183 -120 -300q-92 -90 -227 -110v-200h-154v199q-134 22 -236 121q-115 113 -116 256l2 34h150q2 -134 73.5 -207 t201.5 -73t203 73t73 203q0 108 -70 173q-70 64 -236 109q-176 48 -263 142t-87 237q0 164 111 268q82 77 194 96v173h154v-168q133 -17 218 -99q106 -102 114 -280h-151z" />
<glyph unicode="%" horiz-adv-x="1587" d="M415 805q-160 0 -266 104.5t-106 261.5q0 158 106 262.5t266 104.5t266 -104.5t106 -262.5q0 -157 -106 -261.5t-266 -104.5zM415 1424q-106 0 -176.5 -72t-70.5 -181q0 -108 70.5 -180t176.5 -72t176.5 72t70.5 180q0 109 -70.5 181t-176.5 72zM296 4l859 1506h138 l-859 -1506h-138zM1174 -23q-160 0 -266 104.5t-106 261.5q0 158 106 262.5t266 104.5t266 -104.5t106 -262.5q0 -157 -106 -261.5t-266 -104.5zM1174 596q-106 0 -176.5 -72t-70.5 -181q0 -108 70.5 -180t176.5 -72t176.5 72t70.5 180q0 109 -70.5 181t-176.5 72z" />
<glyph unicode="&#x26;" horiz-adv-x="1550" d="M295 1203q0 142 106 240t260 98q153 0 259 -100.5t106 -246.5q0 -130 -104 -231q-80 -79 -206 -121l309 -298l215 440h170q-2 8 -273 -548l370 -357l-109 -106l-333 322q-84 -150 -184 -227q-122 -94 -287 -94q-192 0 -335.5 134.5t-143.5 314.5q0 172 114 306 q87 102 223 160q-73 74 -106 127q-51 82 -51 187zM585 119q121 0 217 83q79 67 152 200l-392 378q-114 -43 -190 -122q-103 -106 -103 -242q0 -122 93 -210q93 -87 223 -87zM447 1204q0 -66 43 -127q32 -46 115 -129q105 30 174 85q95 75 95 169q0 84 -62 141.5t-151 57.5 q-90 0 -152 -57t-62 -140z" />
<glyph unicode="'" horiz-adv-x="406" d="M146 911l-25 604h166l-24 -604h-117z" />
<glyph unicode="(" horiz-adv-x="756" d="M96 565q0 319 183 604.5t448 380.5v-152q-211 -120 -344.5 -353.5t-133.5 -479.5q0 -251 134 -484.5t344 -349.5v-152q-265 95 -448 381t-183 605z" />
<glyph unicode=")" horiz-adv-x="756" d="M660 564q0 -319 -183 -604.5t-448 -380.5v152q211 120 344.5 353.5t133.5 479.5q0 251 -134 484.5t-344 349.5v152q265 -95 448 -381t183 -605z" />
<glyph unicode="*" horiz-adv-x="870" d="M496 1515l-7 -237l222 80l38 -118l-227 -66l145 -186l-100 -73l-133 196l-133 -196l-100 73l145 187l-227 65l38 118l223 -80l-8 237h124z" />
<glyph unicode="+" horiz-adv-x="1241" d="M550 445h-446v140h446v446h140v-446h446v-140h-446v-446h-140v446z" />
<glyph unicode="," horiz-adv-x="567" d="M29 -139l180 397h153l-180 -397h-153z" />
<glyph unicode="-" horiz-adv-x="680" d="M61 645h558v-137h-558v137z" />
<glyph unicode="." horiz-adv-x="567" d="M209 258h152v-258h-152v258z" />
<glyph unicode="/" horiz-adv-x="895" d="M825 1515l-575 -1720h-160l575 1720h160z" />
<glyph unicode="0" horiz-adv-x="1135" d="M567 -26q-233 0 -370.5 152.5t-137.5 411.5v438q0 260 137.5 412.5t370.5 152.5q235 0 372 -152.5t137 -412.5v-438q0 -259 -137 -411.5t-372 -152.5zM567 110q175 0 266.5 117.5t91.5 342.5v375q0 221 -93 340.5t-265 119.5q-171 0 -264 -119.5t-93 -340.5v-375 q0 -225 91 -342.5t266 -117.5z" />
<glyph unicode="1" horiz-adv-x="1135" d="M534 0v1378h-258v137h410v-1515h-76h-76z" />
<glyph unicode="2" horiz-adv-x="1135" d="M1053 1083q0 -149 -104 -283t-526 -531l-141 -132h771v-137h-971v68v69l247 232q381 358 475 476t94 239q0 135 -93.5 228t-228.5 93q-151 0 -242.5 -107t-79.5 -268h-153q-4 227 128.5 369t347.5 142q200 0 338 -133t138 -325z" />
<glyph unicode="3" horiz-adv-x="1135" d="M786 1165q0 103 -68.5 171.5t-172.5 68.5q-98 0 -161.5 -75t-65.5 -192h-151q6 179 113 291t273 112q167 0 277.5 -105t110.5 -264q0 -158 -111 -263q-24 -22 -50 -40q65 -30 119 -77q138 -120 138 -302q0 -222 -137.5 -369t-346.5 -147q-207 0 -343.5 141.5 t-139.5 359.5h151q0 -153 95 -259t233 -106q145 0 241 97t96 243q0 147 -96 244t-241 97h-93v136h89q104 0 173 68q68 68 68 170z" />
<glyph unicode="4" horiz-adv-x="1135" d="M793 276h-764v66v66l738 1107h89h89v-1102h137v-137h-137v-276h-152v276zM793 413v897l-598 -897h598z" />
<glyph unicode="5" horiz-adv-x="1135" d="M1086 512q0 -231 -147 -384.5t-370 -153.5q-211 0 -356.5 144t-159.5 365h152q31 -175 126.5 -274t235.5 -99q158 0 263 111.5t105 279.5q0 169 -105 280.5t-263 111.5q-89 0 -174.5 -47.5t-126.5 -118.5l-121 41l138 747h680v-137h-566l-79 -425q120 76 251 76 q223 0 370 -148q147 -147 147 -369z" />
<glyph unicode="6" horiz-adv-x="1135" d="M614 1510h163l-335 -503q57 27 125 28q224 0 371.5 -151.5t147.5 -379.5t-147.5 -379t-371.5 -151q-218 0 -368 154t-150 377q0 138 88 294q87 156 477 711zM200 504q0 -169 104.5 -281.5t262.5 -112.5t263 112.5t105 281.5q0 170 -105 282.5t-263 112.5t-263 -113 q-104 -112 -104 -282z" />
<glyph unicode="7" horiz-adv-x="1135" d="M216 0l638 1378h-725v137h877v-66v-67l-622 -1382h-168z" />
<glyph unicode="8" horiz-adv-x="1135" d="M787 846q69 -32 125 -83q139 -126 139 -313q0 -202 -139.5 -339t-344.5 -137t-344 137t-139 339q0 187 139 314q55 51 123 81q-35 23 -65 51q-115 108 -115 267q0 160 115.5 269t285.5 109t285.5 -109t115.5 -269q0 -159 -116 -268q-30 -29 -65 -49zM567 903 q106 0 178 72t72 178q0 107 -72 179.5t-178 72.5t-178 -72.5t-72 -179.5q0 -96 77 -173t173 -77zM567 767q-141 0 -236.5 -94.5t-95.5 -234.5q0 -139 95.5 -233.5t236.5 -94.5t237 94.5t96 233.5q0 140 -96 235q-96 94 -237 94z" />
<glyph unicode="9" horiz-adv-x="1135" d="M521 3h-163l335 504q-58 -28 -125 -28q-224 0 -371.5 151.5t-147.5 379.5t147.5 379t371.5 151q218 0 368 -148t150 -363q0 -152 -88 -312q-87 -159 -477 -714zM935 1010q0 169 -104.5 281.5t-262.5 112.5t-263 -112.5t-105 -281.5q0 -170 105 -282.5t263 -112.5t263 113 q104 112 104 282z" />
<glyph unicode=":" horiz-adv-x="567" d="M209 258h152v-258h-152v258zM209 1121h152v-258h-152v258z" />
<glyph unicode=";" horiz-adv-x="567" d="M29 -139l180 397h153l-180 -397h-153zM210 1121h152v-258h-152v258z" />
<glyph unicode="&#x3c;" horiz-adv-x="1241" d="M94 454v61v61l1041 474v-138l-875 -395l875 -399v-138z" />
<glyph unicode="=" horiz-adv-x="1241" d="M104 379h1032v-140h-1032v140zM104 792h1032v-140h-1032v140z" />
<glyph unicode="&#x3e;" horiz-adv-x="1241" d="M1147 454l-1041 -474v138l875 399l-875 395v138l1041 -474v-61v-61z" />
<glyph unicode="?" horiz-adv-x="1210" d="M604 1396q-145 0 -228.5 -89.5t-99.5 -261.5h-145q-3 216 133 356t349 140q195 0 329.5 -130.5t134.5 -319.5q0 -112 -44 -187.5t-183 -202.5q-83 -76 -122 -150.5t-39 -156.5h-152q0 113 52 214t163 201q110 100 141.5 151.5t31.5 130.5q0 128 -93 217q-93 88 -228 88z M537 258h152v-258h-152v258z" />
<glyph unicode="@" horiz-adv-x="1776" d="M1277 432q100 0 171.5 126.5t71.5 302.5q0 259 -159.5 411.5t-431.5 152.5q-295 0 -483 -187t-188 -481q0 -301 188.5 -485t498.5 -184q124 0 258.5 28.5t229.5 75.5l31 -103q-95 -52 -237.5 -83.5t-281.5 -31.5q-366 0 -589 216t-223 569q0 322 233 553.5t556 231.5 q326 0 524.5 -185.5t198.5 -489.5q0 -226 -111.5 -388.5t-265.5 -162.5q-93 0 -140 90q-18 33 -25 73l-41 -49q-109 -114 -243 -114q-141 0 -226 100t-84 265q0 201 109 334t274 133q154 0 235 -122q23 -35 36 -72l29 168h122l-87 -496q-20 -108 -9 -152t59 -44zM910 1035 q-118 0 -200 -102.5t-81 -250.5q-1 -119 63 -185t180 -66q79 0 148.5 87.5t91.5 214.5t-36.5 214.5t-165.5 87.5z" />
<glyph unicode="A" horiz-adv-x="1516" d="M25 0l651 1515h83h83l651 -1515h-83h-83l-216 512h-712l-214 -512h-80h-80zM755 1359l-298 -710h599z" />
<glyph unicode="B" horiz-adv-x="1176" d="M152 0v1515h76h321q225 0 352 -102.5t127 -283.5t-127 -283q-22 -18 -49 -33q70 -29 123 -71q140 -113 140 -315q0 -201 -131.5 -314t-364.5 -113h-391h-76zM304 1379v-516h267q142 0 222.5 68t80.5 189q0 122 -86 190.5t-239 68.5h-245zM304 727v-591h315 q161 0 251.5 78t90.5 217t-99.5 217.5t-275.5 78.5h-282z" />
<glyph unicode="C" horiz-adv-x="1665" d="M1579 397q-83 -184 -279 -303.5t-415 -119.5q-334 0 -565.5 227t-231.5 556t231.5 556.5t565.5 227.5q214 0 405.5 -117t273.5 -298h-164q-72 123 -216.5 201t-298.5 78q-270 0 -456.5 -188t-186.5 -460t186.5 -459.5t456.5 -187.5q159 0 307.5 80.5t222.5 206.5h164z " />
<glyph unicode="D" horiz-adv-x="1524" d="M152 0v1515h76h358q381 0 613.5 -205t232.5 -541q0 -346 -229.5 -557.5t-606.5 -211.5h-368h-76zM304 136h292q314 0 498 167.5t184 453.5t-186.5 454t-505.5 168h-282v-1243z" />
<glyph unicode="E" horiz-adv-x="1098" d="M143 0v1515h830v-68v-69h-678v-545h657v-68v-69h-657v-559h678v-68v-69h-830z" />
<glyph unicode="F" horiz-adv-x="993" d="M143 0v1515h766v-68v-69h-614v-545h591v-68v-69h-591v-696h-76h-76z" />
<glyph unicode="G" horiz-adv-x="1786" d="M901 -26q-344 0 -581.5 227t-237.5 556t240 556.5t587 227.5q223 0 422.5 -120.5t283.5 -306.5h-177q-76 128 -221.5 209.5t-299.5 81.5q-286 0 -483.5 -188t-197.5 -460t195.5 -459.5t478.5 -187.5q266 0 449 188q113 117 156 262h-845v137h1024q-19 -291 -229 -496 q-230 -227 -564 -227z" />
<glyph unicode="H" horiz-adv-x="1399" d="M156 0v1515h76h76v-667h783v667h76h76v-1515h-76h-76v711h-783v-711h-76h-76z" />
<glyph unicode="I" horiz-adv-x="463" d="M156 0v1515h76h76v-1515h-76h-76z" />
<glyph unicode="J" horiz-adv-x="987" d="M671 1515h76h76v-1119q0 -198 -107.5 -310t-298.5 -112q-168 0 -282.5 109t-122.5 277h148q18 -113 91 -185t171 -72q120 0 184.5 76t64.5 217v1119z" />
<glyph unicode="K" horiz-adv-x="1210" d="M166 0v1515h76h76v-874l702 874h95h95l-607 -741l607 -774h-96h-96l-508 662l-192 -235v-427h-76h-76z" />
<glyph unicode="L" horiz-adv-x="946" d="M168 0v1515h76h76v-1378h626v-68v-69h-778z" />
<glyph unicode="M" horiz-adv-x="1882" d="M308 0h-76h-76v1515h115h116l554 -1310l554 1310h115h116v-1515h-76h-76v1338l-566 -1338h-67h-67l-566 1338v-1338z" />
<glyph unicode="N" horiz-adv-x="1516" d="M306 0h-76h-76v1515h103h104l847 -1252v1252h76h76v-1515h-76h-77l-901 1332v-1332z" />
<glyph unicode="O" horiz-adv-x="1780" d="M890 -26q-336 0 -569 227t-233 556t233 556.5t569 227.5q337 0 569.5 -227.5t232.5 -556.5t-232.5 -556t-569.5 -227zM890 110q273 0 460.5 187.5t187.5 459.5t-187.5 460t-460.5 188q-272 0 -460 -188t-188 -460t188 -459.5t460 -187.5z" />
<glyph unicode="P" horiz-adv-x="1212" d="M154 0v1515h76h374q259 0 405 -120.5t146 -333.5t-146 -333t-405 -120h-298v-608h-76h-76zM306 744h298q187 0 292 84t105 233t-105 233.5t-292 84.5h-298v-635z" />
<glyph unicode="Q" horiz-adv-x="1784" d="M1690 -31h-60q-70 0 -178 67l-95 66q-199 -128 -457 -128q-343 0 -580.5 227t-237.5 556t237.5 556.5t580.5 227.5q344 0 581 -227.5t237 -556.5t-237 -556l-13 -12l39 -26q94 -58 161 -58h22v-136zM1564 757q0 272 -192.5 460t-471.5 188q-278 0 -471 -188t-193 -460 q1 -99 25 -187q132 52 311 52q210 0 375.5 -64t321.5 -206l83 -73l20 19q192 187 192 459zM559 486q-131 0 -222 -30l-25 -9q47 -80 117 -150q193 -187 471 -187q189 0 340 87l-63 55q-140 123 -287 179q-146 55 -331 55z" />
<glyph unicode="R" horiz-adv-x="1243" d="M143 0v1515h76h386q266 0 416 -127.5t150 -354.5q0 -226 -150 -353q-116 -97 -301 -121l433 -559h-96h-96l-519 689h163q194 0 303 91t109 253q0 163 -109 254.5t-303 91.5h-310v-1379h-76h-76z" />
<glyph unicode="S" horiz-adv-x="1020" d="M785 1129q-14 127 -88 201.5t-187 74.5q-116 0 -196 -74t-80 -181q0 -104 70 -167t238 -108q224 -61 326 -171q101 -110 101 -291q0 -184 -134 -311.5t-328 -127.5q-206 0 -334 125t-128 325h150q17 -154 96.5 -234t215.5 -80q132 0 223 85.5t91 208.5q0 128 -80 204 q-79 75 -269 127q-202 55 -294 152q-92 96 -92 254q0 168 123 284t301 116q181 0 302 -117.5t121 -294.5h-148z" />
<glyph unicode="T" horiz-adv-x="872" d="M359 0v1378h-347v68v69h846v-68v-69h-347v-1378h-76h-76z" />
<glyph unicode="U" horiz-adv-x="1341" d="M1185 567q0 -285 -133.5 -439t-381.5 -154q-237 0 -376.5 160t-139.5 433v948h76h76v-967q0 -201 98.5 -319t265.5 -118q174 0 268.5 113.5t94.5 323.5v967h76h76v-948z" />
<glyph unicode="V" horiz-adv-x="1438" d="M16 1515h82h83l541 -1336l539 1336h79h80l-625 -1515h-76h-77z" />
<glyph unicode="W" horiz-adv-x="1966" d="M455 0l-432 1515h79h79l374 -1348l355 1348h76h77l357 -1346l373 1346h76h77l-432 -1515h-97h-97l-336 1229l-335 -1229h-97h-97z" />
<glyph unicode="X" horiz-adv-x="1247" d="M16 0l518 778l-491 737h91h92l400 -601l399 601h89h89l-489 -735l519 -780h-91h-92l-428 644l-428 -644h-89h-89z" />
<glyph unicode="Y" horiz-adv-x="1212" d="M531 507l-529 1008h87h88l435 -861l431 861h84h85l-529 -1009v-506h-76h-76v507z" />
<glyph unicode="Z" horiz-adv-x="983" d="M25 133l744 1245h-713v68v69h891v-66v-67l-743 -1245h759v-68v-69h-938v66v67z" />
<glyph unicode="[" horiz-adv-x="719" d="M272 969q0 211 104.5 354t313.5 218v-152q-148 -85 -206.5 -176.5t-58.5 -240.5v-750q0 -171 54.5 -260.5t210.5 -175.5v-152q-209 75 -313.5 214.5t-104.5 344.5v776z" />
<glyph unicode="\" horiz-adv-x="1239" d="M819 -205l-577 1720h158l577 -1720h-158z" />
<glyph unicode="]" horiz-adv-x="719" d="M447 206q0 -211 -104.5 -354t-313.5 -218v152q148 85 206.5 176.5t58.5 240.5v750q0 171 -54.5 260.5t-210.5 175.5v152q209 -75 313.5 -214.5t104.5 -344.5v-776z" />
<glyph unicode="^" horiz-adv-x="1241" d="M685 1515l447 -887h-140l-369 733l-367 -733h-147l446 887h65h65z" />
<glyph unicode="_" horiz-adv-x="1024" d="M0 -256v102h1024v-102h-1024z" />
<glyph unicode="`" horiz-adv-x="774" d="M547 1267l-406 220l67 122l404 -223z" />
<glyph unicode="a" horiz-adv-x="1399" d="M676 -26q-247 0 -418.5 170t-171.5 416q0 247 171.5 417t418.5 170q250 0 415 -171l37 -43v188h144v-1121h-72h-72v187q-17 -23 -37 -43q-165 -170 -415 -170zM682 1020q-190 0 -321 -134t-131 -328t131 -327.5t321 -133.5t321 134t131 328t-131 327.5t-321 133.5z" />
<glyph unicode="b" horiz-adv-x="1397" d="M139 1515h72h72v-583l41 45q168 170 422 170q244 0 411.5 -170t167.5 -417q0 -246 -167.5 -416t-411.5 -170q-254 0 -422 171l-41 46v-191h-144v1515zM729 101q190 0 321 133.5t131 327.5t-131 328t-321 134q-189 0 -320 -133.5t-131 -327.5t131 -328t320 -134z" />
<glyph unicode="c" horiz-adv-x="1325" d="M1243 325q-75 -165 -221 -258t-330 -93q-255 0 -431.5 170t-176.5 416q0 247 176.5 417t431.5 170q182 0 328 -96t223 -266h-153q-65 110 -170.5 172.5t-227.5 62.5q-195 0 -329.5 -133.5t-134.5 -326.5t134.5 -326t329.5 -133q125 0 230.5 59.5t167.5 164.5h153z" />
<glyph unicode="d" horiz-adv-x="1403" d="M659 -26q-243 0 -411 170t-168 416q0 247 168 417t411 170q255 0 423 -171l40 -45v584h72h72v-1515h-72h-72v189l-40 -45q-168 -170 -423 -170zM676 1020q-190 0 -321 -134t-131 -328t131 -327.5t321 -133.5t321 134t131 328t-131 327.5t-321 133.5z" />
<glyph unicode="e" horiz-adv-x="1331" d="M661 -26q-244 0 -413.5 170t-169.5 416q0 247 169.5 417t413.5 170q246 0 415 -170t169 -417v-11q0 -21 -3 -43h-1017q15 -157 126 -272q129 -133 315 -133q133 0 233.5 67t161.5 196h149q-60 -175 -211 -282.5t-338 -107.5zM1096 635q-21 146 -123 252 q-127 133 -312 133q-184 0 -312 -134q-99 -105 -123 -251h870z" />
<glyph unicode="f" horiz-adv-x="643" d="M358 992v-992h-72h-72v992h-175v129h175v23q0 191 103 294t293 103h33v-127q-145 -1 -215 -62.5t-70 -190.5v-40h285v-129h-285z" />
<glyph unicode="g" horiz-adv-x="1378" d="M683 -310q203 0 308.5 111.5t105.5 325.5v62l-38 -44q-165 -171 -416 -171q-238 0 -402.5 170t-164.5 416q0 247 165 417t403 170q250 0 415 -170l38 -43v187h144v-977q0 -279 -145.5 -430t-413.5 -151q-214 0 -362 107.5t-197 297.5h153q49 -131 157 -204.5t250 -73.5z M661 1024q-185 0 -313 -134t-128 -328t128 -327.5t313 -133.5q186 0 314 134t128 328t-128 327.5t-314 133.5z" />
<glyph unicode="h" horiz-adv-x="1249" d="M127 0v1515h72h72v-538l22 27q118 146 327 146q232 0 362 -143t130 -398v-609h-72h-72v613q0 191 -92 299t-256 108q-168 0 -258.5 -109.5t-90.5 -312.5v-598h-72h-72z" />
<glyph unicode="i" horiz-adv-x="410" d="M133 0v1121h72h72v-1121h-72h-72zM134 1515h142v-257h-142v257z" />
<glyph unicode="j" horiz-adv-x="416" d="M137 1121h72h72v-1040q0 -241 -88.5 -357t-272.5 -116h-9v136q119 0 172.5 79t53.5 258v1040zM138 1515h142v-257h-142v257z" />
<glyph unicode="k" horiz-adv-x="1028" d="M143 0v1515h72h72v-1083l528 689h89h90l-441 -562l467 -559h-94h-94l-365 450l-180 -229v-221h-72h-72z" />
<glyph unicode="l" horiz-adv-x="410" d="M133 0v1515h72h72v-1515h-72h-72z" />
<glyph unicode="m" horiz-adv-x="1921" d="M135 0v1121h71h72v-115l12 14q107 130 297 130q210 0 328 -130q34 -38 59 -84q22 48 53 84q109 130 303 130q215 0 335.5 -133t120.5 -369v-648h-72h-72v664q0 167 -80.5 261.5t-223.5 94.5q-146 0 -225.5 -94.5t-79.5 -268.5v-657h-72h-72v663q0 168 -81 262.5 t-224 94.5q-146 0 -225.5 -94.5t-79.5 -268.5v-657h-72h-72z" />
<glyph unicode="n" horiz-adv-x="1249" d="M133 0v1121h71h72v-145l23 28q118 146 327 146q232 0 362 -143t130 -398v-609h-72h-72v613q0 191 -92 299t-256 108q-168 0 -258.5 -109.5t-90.5 -312.5v-598h-72h-72z" />
<glyph unicode="o" horiz-adv-x="1341" d="M671 -26q-245 0 -415 170t-170 416q0 247 170 417t415 170q247 0 416.5 -170t169.5 -417q0 -246 -169.5 -416t-416.5 -170zM671 101q186 0 314 133t128 326t-128 326.5t-314 133.5q-185 0 -313 -133.5t-128 -326.5t128 -326t313 -133z" />
<glyph unicode="p" horiz-adv-x="1397" d="M131 1121h72h72v-188l40 44q168 170 423 170q244 0 411.5 -170t167.5 -417q0 -246 -167.5 -416t-411.5 -170q-254 0 -422 171l-41 46v-585h-72h-72v1515zM721 101q190 0 321 133.5t131 327.5t-131 328t-321 134t-321 -133.5t-131 -327.5h1q0 -194 131 -328t320 -134z" />
<glyph unicode="q" horiz-adv-x="1397" d="M655 -26q-243 0 -411 170t-168 416q0 247 168 417t411 170q255 0 423 -171l40 -45v190h144v-1515h-72h-72v583l-40 -45q-168 -170 -423 -170zM672 1020q-190 0 -321 -134t-131 -328t131 -327.5t321 -133.5t321 134t131 328t-131 327.5t-321 133.5z" />
<glyph unicode="r" horiz-adv-x="616" d="M133 0v1121h71h72v-161q19 41 42 70q89 113 278 120v-151q-143 -11 -227 -94q-92 -93 -92 -266v-639h-72h-72z" />
<glyph unicode="s" horiz-adv-x="795" d="M561 844q1 77 -46 126.5t-122 49.5q-77 0 -122 -47t-45 -128q0 -64 46 -105t159 -78q167 -54 241 -139q74 -84 74 -220q0 -141 -99.5 -235t-249.5 -94q-160 0 -254 96.5t-94 260.5h145v-8q0 -102 52 -161q54 -61 151 -61q93 0 148 52t55 140t-53 142q-53 53 -182 95 q-151 49 -218 121t-67 185q0 134 89 222.5t224 88.5q141 0 227 -83.5t86 -219.5h-145z" />
<glyph unicode="t" horiz-adv-x="694" d="M267 0v992h-238v129h238v392h144v-392h265v-129h-265v-992h-144z" />
<glyph unicode="u" horiz-adv-x="1245" d="M271 1121v-665q0 -167 89 -260.5t247 -93.5q171 0 264 110t93 314v595h72h72v-1121h-67h-68v180q-17 -31 -40 -60q-116 -146 -322 -146q-228 0 -356 127t-128 352v668h72h72z" />
<glyph unicode="v" horiz-adv-x="1135" d="M14 1121h78h79l398 -972l397 972h76h77l-472 -1121h-80h-81z" />
<glyph unicode="w" horiz-adv-x="1702" d="M458 0l-431 1121h77h78l354 -949l257 814h62h63l259 -812l351 947h75h76l-430 -1121h-80h-81l-235 759l-234 -759h-80h-81z" />
<glyph unicode="x" horiz-adv-x="983" d="M25 0l381 561l-380 560h87h88l293 -433l293 433h85h85l-380 -559l381 -562h-87h-88l-293 435l-295 -435h-85h-85z" />
<glyph unicode="y" horiz-adv-x="1098" d="M1071 1121l-657 -1519h-70h-71l192 449l-434 1070h78h78l352 -896l380 896h76h76z" />
<glyph unicode="z" horiz-adv-x="870" d="M20 126l614 866h-593v64v65h771v-63v-63l-612 -866h650v-64v-65h-830v63v63z" />
<glyph unicode="{" horiz-adv-x="719" d="M678 -390q-220 0 -290 69q-61 61 -61 229l1 50v258q6 129 -44 205t-141 76v134q91 0 141 76t44 205v258l-1 50q0 168 61 229q70 69 290 69v-123q-130 0 -166.5 -41.5t-29.5 -183.5v-258l1 -34q0 -160 -79 -247q-38 -43 -96 -67q59 -24 96 -67q79 -87 79 -247l-1 -34v-258 q-7 -142 29.5 -183.5t166.5 -41.5v-123z" />
<glyph unicode="|" horiz-adv-x="1376" d="M612 -512v2048h152v-2048h-152z" />
<glyph unicode="}" horiz-adv-x="719" d="M41 -390v123q130 0 166.5 41.5t29.5 183.5v258l-1 34q0 160 79 247q37 43 96 67q-58 24 -96 67q-79 87 -79 247l1 34v258q7 142 -29.5 183.5t-166.5 41.5v123q220 0 290 -69q61 -61 61 -229l-1 -50v-258q-6 -129 44 -205t141 -76v-134q-91 0 -141 -76t-44 -205v-258 l1 -50q0 -168 -61 -229q-70 -69 -290 -69z" />
<glyph unicode="~" horiz-adv-x="1241" d="M147 469q44 83 111.5 129.5t144.5 46.5q52 0 104.5 -16t139.5 -58q81 -40 124 -56t68 -16q48 0 87.5 32t95.5 117l71 -101q-42 -72 -112 -121.5t-129 -49.5q-60 0 -105 15t-154 70q-77 39 -112.5 50t-86.5 11q-55 0 -97.5 -37t-78.5 -117z" />
<glyph unicode="&#xa1;" horiz-adv-x="604" d="M377 731v-1120h-152v1120h152zM377 864h-152v258h152v-258z" />
<glyph unicode="&#xa2;" horiz-adv-x="1135" d="M503 1447h153v-195q119 -16 213 -78q121 -81 176 -225h-165q-41 81 -118.5 126.5t-173.5 45.5q-142 0 -240 -97.5t-98 -239.5q0 -141 98 -238.5t240 -97.5q88 0 161 38.5t113 107.5h171q-60 -132 -178 -206q-89 -56 -199 -71v-192h-153v194q-151 25 -263 132 q-142 136 -142 333q0 198 142 335q113 108 263 129v199z" />
<glyph unicode="&#xa3;" horiz-adv-x="1135" d="M1114 548q70 -227 -74.5 -387.5t-419.5 -160.5h-559v130h312l13 34q48 116 48 212q0 76 -35 144.5t-110 139.5l-56 55h-225v131h130l-3 4q-49 92 -49 190q0 225 133 363t351 138q189 0 325.5 -123t157.5 -312h-148q-34 153 -117 229.5t-216 76.5q-150 0 -242 -101.5 t-92 -268.5q0 -76 35 -145q12 -25 30 -51h576v-131h-459q76 -78 114 -153q48 -92 48 -188q0 -111 -54 -227l-8 -17h94q214 0 306.5 111t42.5 307h151z" />
<glyph unicode="&#xa4;" horiz-adv-x="1135" d="M885 636q0 134 -92 226t-226 92t-226 -92t-92 -226t92 -226t226 -92t226 92t92 226zM567 195q-152 2 -269 85l-195 -195l-87 87l198 198q-89 113 -88 266q0 153 88 267l-198 198l87 87l197 -197q115 86 267 86q152 -1 268 -86l197 197l87 -87l-199 -199q89 -112 88 -266 q0 -152 -87 -266l198 -198l-87 -87l-197 197q-116 -87 -268 -87z" />
<glyph unicode="&#xa5;" horiz-adv-x="1135" d="M71 768v129h308l-371 618h82h82l397 -666l391 666h83h84l-369 -618h308v-129h-386l-36 -61v-113h422v-129h-422v-465h-76h-76v465h-421v129h421v114l-36 60h-385z" />
<glyph unicode="&#xa6;" horiz-adv-x="1376" d="M612 -342v683h152v-683h-152zM612 682v683h152v-683h-152z" />
<glyph unicode="&#xa7;" horiz-adv-x="1260" d="M629 1541q168 0 264.5 -79.5t90.5 -211.5h-144q-5 71 -62 113t-149 42q-85 0 -144 -53.5t-59 -131.5q0 -73 41.5 -120.5t155.5 -103.5l153 -75q178 -87 243 -160.5t65 -187.5q0 -147 -127 -249l-40 -29q24 -18 41 -39q72 -83 72 -200q0 -145 -111.5 -245.5t-273.5 -100.5 q-184 0 -297.5 112.5t-119.5 299.5h151q4 -127 76 -201.5t190 -74.5q98 0 165.5 60t67.5 147q0 77 -50 131t-188 124l-156 79q-179 91 -244.5 158.5t-65.5 160.5q0 151 127 255q28 23 58 40l-24 26q-61 73 -61 191q0 136 103 230q103 93 252 93zM932 572q0 69 -45.5 116 t-169.5 108l-153 75q-63 31 -112 61l-44 -33q-82 -73 -82 -179q0 -55 46.5 -99t173.5 -109l156 -79q67 -34 119 -67l29 24q82 74 82 182z" />
<glyph unicode="&#xa8;" horiz-adv-x="756" d="M150 1567h152v-258h-152v258zM451 1567h152v-258h-152v258z" />
<glyph unicode="&#xa9;" horiz-adv-x="1530" d="M764 1539q328 0 554.5 -226.5t226.5 -554.5t-226.5 -554.5t-554.5 -226.5t-554.5 226.5t-226.5 554.5t226.5 554.5t554.5 226.5zM1436 758q0 282 -194.5 476.5t-477.5 194.5t-477.5 -194.5t-194.5 -476.5t195 -476.5t477 -194.5t477 194.5t195 476.5zM1164 603 q-14 -129 -127 -220.5t-260 -91.5q-195 0 -319.5 130.5t-124.5 335.5q0 206 124.5 336.5t319.5 130.5q150 0 261.5 -88.5t125.5 -219.5h-113q-23 100 -92.5 152t-181.5 52q-150 0 -238 -98t-88 -265q0 -163 89.5 -262.5t236.5 -99.5q109 0 180.5 54t93.5 154h113z" />
<glyph unicode="&#xaa;" horiz-adv-x="756" d="M348 834q-145 0 -249 104.5t-104 249.5q0 146 104 251t249 105q160 0 230 -85q17 -20 28 -46v112h123v-674h-61h-62v114q-11 -26 -28 -46q-70 -85 -230 -85zM364 1430q-106 0 -176.5 -69t-70.5 -173q0 -103 70 -171.5t176 -68.5q107 0 177.5 68.5t70.5 172.5 q0 96 -74 168.5t-173 72.5z" />
<glyph unicode="&#xab;" horiz-adv-x="870" d="M434 919l-194 -344l194 -345l-119 -68l-233 413l233 412zM790 919l-194 -344l194 -345l-119 -68l-233 413l233 412z" />
<glyph unicode="&#xac;" horiz-adv-x="1241" d="M996 655h-892v140h1032v-570h-140v430z" />
<glyph unicode="&#xad;" horiz-adv-x="680" d="M61 645h558v-137h-558v137z" />
<glyph unicode="&#xae;" horiz-adv-x="1530" d="M764 1539q328 0 554.5 -226.5t226.5 -554.5t-226.5 -554.5t-554.5 -226.5t-554.5 226.5t-226.5 554.5t226.5 554.5t554.5 226.5zM1432 758q0 286 -193.5 483.5t-474.5 197.5t-474.5 -197.5t-193.5 -483.5t194 -483.5t474 -197.5t474 197.5t194 483.5zM430 304v893h56h297 q175 0 255.5 -58t80.5 -183q0 -129 -78 -184q-34 -24 -86 -37q59 -16 93 -50q51 -53 58 -173l8 -120q3 -37 7 -57t12 -31h-56h-56q-8 15 -12.5 41.5t-8.5 74.5l-5 71q-7 115 -52.5 153t-175.5 38h-225v-378h-56h-56zM542 782h222q123 0 182.5 40t59.5 124q0 74 -54.5 110 t-168.5 36h-241v-310z" />
<glyph unicode="&#xaf;" horiz-adv-x="1024" d="M0 1668v103h1024v-103h-1024z" />
<glyph unicode="&#xb0;" horiz-adv-x="819" d="M409 1451q124 0 209.5 -85.5t85.5 -209.5q0 -123 -85.5 -208.5t-209.5 -85.5q-123 0 -208.5 85.5t-85.5 208.5q0 124 85.5 209.5t208.5 85.5zM602 1156q0 81 -56 136.5t-137 55.5t-136.5 -55.5t-55.5 -136.5q0 -80 55.5 -135.5t136.5 -55.5t137 55.5t56 135.5z" />
<glyph unicode="&#xb1;" horiz-adv-x="1241" d="M550 558h-446v140h446v363h140v-363h446v-140h-446v-363h-140v363zM104 91h1032v-140h-1032v140z" />
<glyph unicode="&#xb2;" horiz-adv-x="680" d="M651 1247q0 -92 -62 -172q-62 -79 -313 -307l-56 -51h431v-111h-612v52v53l158 144q222 202 277 268q55 65 55 129q0 70 -52 118t-128 48q-84 0 -135 -62t-44 -155h-119q-2 146 81 237.5t219 91.5q126 0 213 -82t87 -201z" />
<glyph unicode="&#xb3;" horiz-adv-x="680" d="M467 1297q0 52 -37.5 86.5t-93.5 34.5q-52 0 -86 -42.5t-35 -108.5h-117q4 117 72.5 190t174.5 73q107 0 177.5 -64.5t70.5 -162.5q0 -90 -75 -158l-19 -16q35 -18 65 -46q87 -82 87 -206q0 -123 -87.5 -204.5t-219.5 -81.5q-140 0 -222.5 85.5t-84.5 233.5h121 q0 -87 52.5 -147t128.5 -60q80 0 133.5 51.5t53.5 128.5q0 78 -53.5 130t-133.5 52h-72v112h69q56 0 94 34q37 34 37 86z" />
<glyph unicode="&#xb4;" horiz-adv-x="768" d="M160 1387l409 220l67 -122l-411 -218z" />
<glyph unicode="&#xb5;" horiz-adv-x="1245" d="M308 1121v-614q0 -182 86 -292.5t227 -110.5q126 0 220 100t94 233v684h144v-1121h-143v140q-14 -25 -33 -48q-96 -118 -280 -118q-176 0 -260 84q-32 34 -55 81v-514h-144v711v785h144z" />
<glyph unicode="&#xb6;" horiz-adv-x="1155" d="M499 707q-207 2 -330.5 110t-123.5 294t122.5 295t331.5 109h629v-113h-131v-1629h-126v1629h-246v-1629h-126v934z" />
<glyph unicode="&#xb7;" horiz-adv-x="567" d="M209 886h152v-258h-152v258z" />
<glyph unicode="&#xb8;" horiz-adv-x="664" d="M345 0l-49 -118q39 14 66 14q67 0 113 -48.5t46 -119.5q0 -76 -50.5 -129t-124.5 -53q-72 0 -119 38t-63 109l85 9q12 -39 36.5 -60t58.5 -21q41 0 66.5 29t25.5 77q0 44 -25 70.5t-66 26.5q-29 0 -55.5 -13t-36.5 -32l-77 39l83 182h86z" />
<glyph unicode="&#xb9;" horiz-adv-x="680" d="M284 606v797h-155v112h278v-909h-61h-62z" />
<glyph unicode="&#xba;" horiz-adv-x="756" d="M377 834q-148 0 -250 102.5t-102 250.5q0 149 102 251.5t250 102.5t250 -102.5t102 -251.5q0 -148 -102 -250.5t-250 -102.5zM377 948q104 0 167 65.5t63 173.5q0 103 -65.5 171.5t-164.5 68.5q-96 0 -162.5 -69.5t-66.5 -170.5q0 -100 66.5 -169.5t162.5 -69.5z" />
<glyph unicode="&#xbb;" horiz-adv-x="870" d="M80 230l194 344l-194 345l119 68l233 -413l-233 -412zM436 230l194 344l-194 345l119 68l233 -413l-233 -412z" />
<glyph unicode="&#xbc;" horiz-adv-x="1702" d="M1177 1515l-681 -1515h-121l681 1515h121zM360 606v797h-155v112h278v-909h-61h-62zM1284 159h-452v53v54l442 643h66h67v-639h86v-111h-86v-159h-123v159zM1284 270v454l-312 -454h312z" />
<glyph unicode="&#xbd;" horiz-adv-x="1702" d="M1141 1515l-681 -1515h-121l681 1515h121zM321 606v797h-155v112h278v-909h-61h-62zM1536 641q0 -92 -62 -172q-62 -79 -313 -307l-56 -51h431v-111h-612v52v53l158 144q222 202 277 268q55 65 55 129q0 70 -52 118t-128 48q-84 0 -135 -62t-44 -155h-119 q-2 146 81 237.5t219 91.5q126 0 213 -82t87 -201z" />
<glyph unicode="&#xbe;" horiz-adv-x="1702" d="M1322 1515l-681 -1515h-121l681 1515h121zM524 1297q0 52 -37.5 86.5t-93.5 34.5q-52 0 -86 -42.5t-35 -108.5h-117q4 117 72.5 190t174.5 73q107 0 177.5 -64.5t70.5 -162.5q0 -90 -75 -158l-19 -16q35 -18 65 -46q87 -82 87 -206q0 -123 -87.5 -204.5t-219.5 -81.5 q-140 0 -222.5 85.5t-84.5 233.5h121q0 -87 52.5 -147t128.5 -60q80 0 133.5 51.5t53.5 128.5q0 78 -53.5 130t-133.5 52h-72v112h69q56 0 94 34q37 34 37 86zM1397 159h-452v53v54l442 643h66h67v-639h86v-111h-86v-159h-123v159zM1397 270v454l-312 -454h312z" />
<glyph unicode="&#xbf;" horiz-adv-x="1210" d="M606 -276q145 0 228.5 89.5t99.5 261.5h145q3 -216 -133 -356t-349 -140q-195 0 -329.5 130.5t-134.5 319.5q0 112 44 187.5t183 202.5q83 76 122 150.5t39 156.5h152q0 -113 -52 -214t-163 -201q-110 -100 -141.5 -151.5t-31.5 -130.5q0 -128 93 -217q93 -88 228 -88z M673 862h-152v258h152v-258z" />
<glyph unicode="&#xc0;" horiz-adv-x="1516" d="M25 0l651 1515h83h83l651 -1515h-83h-83l-216 512h-712l-214 -512h-80h-80zM755 1359l-298 -710h599zM901 1600l-406 220l67 122l404 -223z" />
<glyph unicode="&#xc1;" horiz-adv-x="1516" d="M25 0l651 1515h83h83l651 -1515h-83h-83l-216 512h-712l-214 -512h-80h-80zM755 1359l-298 -710h599zM569 1720l409 220l67 -122l-411 -218z" />
<glyph unicode="&#xc2;" horiz-adv-x="1516" d="M25 0l651 1515h83h83l651 -1515h-83h-83l-216 512h-712l-214 -512h-80h-80zM755 1359l-298 -710h599zM826 1897l295 -255h-183l-172 150l-180 -150h-189l295 255h67h67z" />
<glyph unicode="&#xc3;" horiz-adv-x="1516" d="M25 0l651 1515h83h83l651 -1515h-83h-83l-216 512h-712l-214 -512h-80h-80zM755 1359l-298 -710h599zM406 1789q31 37 92 63t118 26q37 0 76 -11t94 -37q45 -21 71.5 -29t51.5 -8q24 0 62 15.5t70 37.5l71 -101q-35 -33 -92.5 -55.5t-105.5 -22.5q-37 0 -71.5 9.5 t-110.5 39.5q-61 24 -80.5 30t-35.5 6q-32 0 -72.5 -18.5t-66.5 -45.5z" />
<glyph unicode="&#xc4;" horiz-adv-x="1516" d="M25 0l651 1515h83h83l651 -1515h-83h-83l-216 512h-712l-214 -512h-80h-80zM755 1359l-298 -710h599zM532 1900h152v-258h-152v258zM833 1900h152v-258h-152v258z" />
<glyph unicode="&#xc5;" horiz-adv-x="1516" d="M25 0l651 1515h83h83l651 -1515h-83h-83l-216 512h-712l-214 -512h-80h-80zM755 1359l-298 -710h599zM759 1532q-89 0 -150.5 61.5t-61.5 150.5t61.5 150.5t150.5 61.5t150.5 -61.5t61.5 -150.5t-61.5 -150.5t-150.5 -61.5zM759 1639q45 0 75.5 30.5t30.5 74.5 t-30.5 74.5t-75.5 30.5t-75.5 -30.5t-30.5 -74.5t30.5 -74.5t75.5 -30.5z" />
<glyph unicode="&#xc6;" horiz-adv-x="2032" d="M1058 0v512h-564l-354 -512h-90h-90l1055 1515h195h648v-68v-69h-648v-545h628v-68v-69h-628v-559h648v-68v-69h-648h-152zM1058 1326l-469 -677h469v677z" />
<glyph unicode="&#xc7;" horiz-adv-x="1665" d="M1579 397q-83 -184 -279 -303.5t-415 -119.5q-334 0 -565.5 227t-231.5 556t231.5 556.5t565.5 227.5q214 0 405.5 -117t273.5 -298h-164q-72 123 -216.5 201t-298.5 78q-270 0 -456.5 -188t-186.5 -460t186.5 -459.5t456.5 -187.5q159 0 307.5 80.5t222.5 206.5h164z M864 0l-49 -118q39 14 66 14q67 0 113 -48.5t46 -119.5q0 -76 -50.5 -129t-124.5 -53q-72 0 -119 38t-63 109l85 9q12 -39 36.5 -60t58.5 -21q41 0 66.5 29t25.5 77q0 44 -25 70.5t-66 26.5q-29 0 -55.5 -13t-36.5 -32l-77 39l83 182h86z" />
<glyph unicode="&#xc8;" horiz-adv-x="1098" d="M143 0v1515h830v-68v-69h-678v-545h657v-68v-69h-657v-559h678v-68v-69h-830zM707 1600l-406 220l67 122l404 -223z" />
<glyph unicode="&#xc9;" horiz-adv-x="1098" d="M143 0v1515h830v-68v-69h-678v-545h657v-68v-69h-657v-559h678v-68v-69h-830zM330 1720l409 220l67 -122l-411 -218z" />
<glyph unicode="&#xca;" horiz-adv-x="1098" d="M143 0v1515h830v-68v-69h-678v-545h657v-68v-69h-657v-559h678v-68v-69h-830zM617 1897l295 -255h-183l-172 150l-180 -150h-189l295 255h67h67z" />
<glyph unicode="&#xcb;" horiz-adv-x="1098" d="M143 0v1515h830v-68v-69h-678v-545h657v-68v-69h-657v-559h678v-68v-69h-830zM323 1900h152v-258h-152v258zM624 1900h152v-258h-152v258z" />
<glyph unicode="&#xcc;" horiz-adv-x="463" d="M159 0v1515h76h76v-1515h-76h-76zM377 1600l-406 220l67 122l404 -223z" />
<glyph unicode="&#xcd;" horiz-adv-x="463" d="M170 0v1515h76h76v-1515h-76h-76zM56 1720l409 220l67 -122l-411 -218z" />
<glyph unicode="&#xce;" horiz-adv-x="463" d="M156 0v1515h76h76v-1515h-76h-76zM299 1897l295 -255h-183l-172 150l-180 -150h-189l295 255h67h67z" />
<glyph unicode="&#xcf;" horiz-adv-x="463" d="M155 0v1515h76h76v-1515h-76h-76zM4 1900h152v-258h-152v258zM305 1900h152v-258h-152v258z" />
<glyph unicode="&#xd0;" horiz-adv-x="1618" d="M246 0v689h-164v137h164v689h76h403q395 0 593 -187q196 -185 196 -555v-4q1 -385 -194 -577t-586 -192h-412h-76zM398 1379v-553h366v-137h-366v-553h336q320 0 473.5 152t152.5 469q1 317 -155 469.5t-480 152.5h-327z" />
<glyph unicode="&#xd1;" horiz-adv-x="1516" d="M306 0h-76h-76v1515h103h104l847 -1252v1252h76h76v-1515h-76h-77l-901 1332v-1332zM404 1789q31 37 92 63t118 26q37 0 76 -11t94 -37q45 -21 71.5 -29t51.5 -8q24 0 62 15.5t70 37.5l71 -101q-35 -33 -92.5 -55.5t-105.5 -22.5q-37 0 -71.5 9.5t-110.5 39.5 q-61 24 -80.5 30t-35.5 6q-32 0 -72.5 -18.5t-66.5 -45.5z" />
<glyph unicode="&#xd2;" horiz-adv-x="1780" d="M890 -26q-336 0 -569 227t-233 556t233 556.5t569 227.5q337 0 569.5 -227.5t232.5 -556.5t-232.5 -556t-569.5 -227zM890 110q273 0 460.5 187.5t187.5 459.5t-187.5 460t-460.5 188q-272 0 -460 -188t-188 -460t188 -459.5t460 -187.5zM1032 1600l-406 220l67 122 l404 -223z" />
<glyph unicode="&#xd3;" horiz-adv-x="1780" d="M890 -26q-336 0 -569 227t-233 556t233 556.5t569 227.5q337 0 569.5 -227.5t232.5 -556.5t-232.5 -556t-569.5 -227zM890 110q273 0 460.5 187.5t187.5 459.5t-187.5 460t-460.5 188q-272 0 -460 -188t-188 -460t188 -459.5t460 -187.5zM700 1720l409 220l67 -122 l-411 -218z" />
<glyph unicode="&#xd4;" horiz-adv-x="1780" d="M890 -26q-336 0 -569 227t-233 556t233 556.5t569 227.5q337 0 569.5 -227.5t232.5 -556.5t-232.5 -556t-569.5 -227zM890 110q273 0 460.5 187.5t187.5 459.5t-187.5 460t-460.5 188q-272 0 -460 -188t-188 -460t188 -459.5t460 -187.5zM957 1897l295 -255h-183 l-172 150l-180 -150h-189l295 255h67h67z" />
<glyph unicode="&#xd5;" horiz-adv-x="1780" d="M890 -26q-336 0 -569 227t-233 556t233 556.5t569 227.5q337 0 569.5 -227.5t232.5 -556.5t-232.5 -556t-569.5 -227zM890 110q273 0 460.5 187.5t187.5 459.5t-187.5 460t-460.5 188q-272 0 -460 -188t-188 -460t188 -459.5t460 -187.5zM537 1789q31 37 92 63t118 26 q37 0 76 -11t94 -37q45 -21 71.5 -29t51.5 -8q24 0 62 15.5t70 37.5l71 -101q-35 -33 -92.5 -55.5t-105.5 -22.5q-37 0 -71.5 9.5t-110.5 39.5q-61 24 -80.5 30t-35.5 6q-32 0 -72.5 -18.5t-66.5 -45.5z" />
<glyph unicode="&#xd6;" horiz-adv-x="1780" d="M890 -26q-336 0 -569 227t-233 556t233 556.5t569 227.5q337 0 569.5 -227.5t232.5 -556.5t-232.5 -556t-569.5 -227zM890 110q273 0 460.5 187.5t187.5 459.5t-187.5 460t-460.5 188q-272 0 -460 -188t-188 -460t188 -459.5t460 -187.5zM663 1900h152v-258h-152v258z M964 1900h152v-258h-152v258z" />
<glyph unicode="&#xd7;" horiz-adv-x="1241" d="M621 417l-370 -371l-99 99l371 370l-371 370l99 99l370 -371l370 371l99 -99l-371 -370l371 -370l-99 -99z" />
<glyph unicode="&#xd8;" horiz-adv-x="1778" d="M890 669l-428 -404q180 -153 428 -155q273 0 460.5 187.5t187.5 459.5q0 229 -133 397zM890 -26q-310 1 -533 192l-176 -166l-93 90l179 169q-180 211 -179 498q0 329 233 556.5t569 227.5q311 1 531 -194l178 168l93 -90l-179 -169q180 -210 179 -499 q0 -329 -232.5 -556t-569.5 -227zM890 1405q-272 0 -460 -188t-188 -460q2 -228 131 -398l517 487l428 404q-179 154 -428 155z" />
<glyph unicode="&#xd9;" horiz-adv-x="1341" d="M1185 567q0 -285 -133.5 -439t-381.5 -154q-237 0 -376.5 160t-139.5 433v948h76h76v-967q0 -201 98.5 -319t265.5 -118q174 0 268.5 113.5t94.5 323.5v967h76h76v-948zM811 1600l-406 220l67 122l404 -223z" />
<glyph unicode="&#xda;" horiz-adv-x="1341" d="M1185 567q0 -285 -133.5 -439t-381.5 -154q-237 0 -376.5 160t-139.5 433v948h76h76v-967q0 -201 98.5 -319t265.5 -118q174 0 268.5 113.5t94.5 323.5v967h76h76v-948zM479 1720l409 220l67 -122l-411 -218z" />
<glyph unicode="&#xdb;" horiz-adv-x="1341" d="M1185 567q0 -285 -133.5 -439t-381.5 -154q-237 0 -376.5 160t-139.5 433v948h76h76v-967q0 -201 98.5 -319t265.5 -118q174 0 268.5 113.5t94.5 323.5v967h76h76v-948zM736 1897l295 -255h-183l-172 150l-180 -150h-189l295 255h67h67z" />
<glyph unicode="&#xdc;" horiz-adv-x="1341" d="M1185 567q0 -285 -133.5 -439t-381.5 -154q-237 0 -376.5 160t-139.5 433v948h76h76v-967q0 -201 98.5 -319t265.5 -118q174 0 268.5 113.5t94.5 323.5v967h76h76v-948zM442 1900h152v-258h-152v258zM743 1900h152v-258h-152v258z" />
<glyph unicode="&#xdd;" horiz-adv-x="1212" d="M531 507l-529 1008h87h88l435 -861l431 861h84h85l-529 -1009v-506h-76h-76v507zM417 1720l409 220l67 -122l-411 -218z" />
<glyph unicode="&#xde;" horiz-adv-x="1212" d="M123 0v1515h76h77v-307h298q270 0 410 -115t140 -336t-140 -335.5t-410 -114.5h-298v-307h-76h-77zM970 757q0 154 -101 234.5t-295 80.5h-298v-629h298q194 0 295 80t101 234z" />
<glyph unicode="&#xdf;" horiz-adv-x="1135" d="M269 1043v-1043h-72h-72v1043v42q0 201 119.5 328.5t307.5 127.5q189 0 304.5 -116.5t115.5 -306.5q0 -183 -139 -293l-46 -32q74 -23 129 -63q160 -112 160 -324q0 -181 -120 -306.5t-293 -125.5q-204 0 -313.5 117t-99.5 324h122q9 -148 83.5 -231t196.5 -83 q118 0 199 85.5t81 208.5q0 163 -113.5 236t-359.5 69v137q185 3 277 76.5t92 217.5q0 125 -77.5 204t-198.5 79q-133 0 -208 -99q-75 -98 -75 -272z" />
<glyph unicode="&#xe0;" horiz-adv-x="1399" d="M676 -26q-247 0 -418.5 170t-171.5 416q0 247 171.5 417t418.5 170q250 0 415 -171l37 -43v188h144v-1121h-72h-72v187q-17 -23 -37 -43q-165 -170 -415 -170zM682 1020q-190 0 -321 -134t-131 -328t131 -327.5t321 -133.5t321 134t131 328t-131 327.5t-321 133.5z M857 1267l-406 220l67 122l404 -223z" />
<glyph unicode="&#xe1;" horiz-adv-x="1399" d="M676 -26q-247 0 -418.5 170t-171.5 416q0 247 171.5 417t418.5 170q250 0 415 -171l37 -43v188h144v-1121h-72h-72v187q-17 -23 -37 -43q-165 -170 -415 -170zM682 1020q-190 0 -321 -134t-131 -328t131 -327.5t321 -133.5t321 134t131 328t-131 327.5t-321 133.5z M525 1387l409 220l67 -122l-411 -218z" />
<glyph unicode="&#xe2;" horiz-adv-x="1399" d="M676 -26q-247 0 -418.5 170t-171.5 416q0 247 171.5 417t418.5 170q250 0 415 -171l37 -43v188h144v-1121h-72h-72v187q-17 -23 -37 -43q-165 -170 -415 -170zM682 1020q-190 0 -321 -134t-131 -328t131 -327.5t321 -133.5t321 134t131 328t-131 327.5t-321 133.5z M782 1564l295 -255h-183l-172 150l-180 -150h-189l295 255h67h67z" />
<glyph unicode="&#xe3;" horiz-adv-x="1399" d="M676 -26q-247 0 -418.5 170t-171.5 416q0 247 171.5 417t418.5 170q250 0 415 -171l37 -43v188h144v-1121h-72h-72v187q-17 -23 -37 -43q-165 -170 -415 -170zM682 1020q-190 0 -321 -134t-131 -328t131 -327.5t321 -133.5t321 134t131 328t-131 327.5t-321 133.5z M362 1456q31 37 92 63t118 26q37 0 76 -11t94 -37q45 -21 71.5 -29t51.5 -8q24 0 62 15.5t70 37.5l71 -101q-35 -33 -92.5 -55.5t-105.5 -22.5q-37 0 -71.5 9.5t-110.5 39.5q-61 24 -80.5 30t-35.5 6q-32 0 -72.5 -18.5t-66.5 -45.5z" />
<glyph unicode="&#xe4;" horiz-adv-x="1399" d="M676 -26q-247 0 -418.5 170t-171.5 416q0 247 171.5 417t418.5 170q250 0 415 -171l37 -43v188h144v-1121h-72h-72v187q-17 -23 -37 -43q-165 -170 -415 -170zM682 1020q-190 0 -321 -134t-131 -328t131 -327.5t321 -133.5t321 134t131 328t-131 327.5t-321 133.5z M488 1567h152v-258h-152v258zM789 1567h152v-258h-152v258z" />
<glyph unicode="&#xe5;" horiz-adv-x="1399" d="M676 -26q-247 0 -418.5 170t-171.5 416q0 247 171.5 417t418.5 170q250 0 415 -171l37 -43v188h144v-1121h-72h-72v187q-17 -23 -37 -43q-165 -170 -415 -170zM682 1020q-190 0 -321 -134t-131 -328t131 -327.5t321 -133.5t321 134t131 328t-131 327.5t-321 133.5z M699 1229q-89 0 -150.5 61.5t-61.5 150.5t61.5 150.5t150.5 61.5t150.5 -61.5t61.5 -150.5t-61.5 -150.5t-150.5 -61.5zM699 1336q45 0 75.5 30.5t30.5 74.5t-30.5 74.5t-75.5 30.5t-75.5 -30.5t-30.5 -74.5t30.5 -74.5t75.5 -30.5z" />
<glyph unicode="&#xe6;" horiz-adv-x="2370" d="M663 1147q245 0 414 -173l41 -47v194h144v-193l38 42q174 177 402 177q243 0 410.5 -170t167.5 -417q1 -27 -4 -54h-1004q16 -154 126 -270q129 -135 309 -135q130 0 229 67t160 196h149q-60 -175 -209.5 -282.5t-333.5 -107.5q-228 0 -403 177l-37 38v-189h-72h-72v194 l-41 -47q-169 -173 -414 -173q-249 0 -421 170t-172 416q0 247 172 417t421 170zM669 1020q-191 0 -323 -133.5t-132 -327.5q0 -193 132 -326.5t323 -133.5t323 133.5t132 327.5q0 193 -132 326.5t-323 133.5zM2131 635q-18 153 -117 256q-121 129 -312 129 q-178 0 -306 -136q-99 -107 -124 -249h859z" />
<glyph unicode="&#xe7;" horiz-adv-x="1325" d="M1243 325q-75 -165 -221 -258t-330 -93q-255 0 -431.5 170t-176.5 416q0 247 176.5 417t431.5 170q182 0 328 -96t223 -266h-153q-65 110 -170.5 172.5t-227.5 62.5q-195 0 -329.5 -133.5t-134.5 -326.5t134.5 -326t329.5 -133q125 0 230.5 59.5t167.5 164.5h153zM689 0 l-49 -118q39 14 66 14q67 0 113 -48.5t46 -119.5q0 -76 -50.5 -129t-124.5 -53q-72 0 -119 38t-63 109l85 9q12 -39 36.5 -60t58.5 -21q41 0 66.5 29t25.5 77q0 44 -25 70.5t-66 26.5q-29 0 -55.5 -13t-36.5 -32l-77 39l83 182h86z" />
<glyph unicode="&#xe8;" horiz-adv-x="1331" d="M661 -26q-244 0 -413.5 170t-169.5 416q0 247 169.5 417t413.5 170q246 0 415 -170t169 -417v-11q0 -21 -3 -43h-1017q15 -157 126 -272q129 -133 315 -133q133 0 233.5 67t161.5 196h149q-60 -175 -211 -282.5t-338 -107.5zM1096 635q-21 146 -123 252 q-127 133 -312 133q-184 0 -312 -134q-99 -105 -123 -251h870zM827 1267l-406 220l67 122l404 -223z" />
<glyph unicode="&#xe9;" horiz-adv-x="1331" d="M661 -26q-244 0 -413.5 170t-169.5 416q0 247 169.5 417t413.5 170q246 0 415 -170t169 -417v-11q0 -21 -3 -43h-1017q15 -157 126 -272q129 -133 315 -133q133 0 233.5 67t161.5 196h149q-60 -175 -211 -282.5t-338 -107.5zM1096 635q-21 146 -123 252 q-127 133 -312 133q-184 0 -312 -134q-99 -105 -123 -251h870zM495 1387l409 220l67 -122l-411 -218z" />
<glyph unicode="&#xea;" horiz-adv-x="1331" d="M661 -26q-244 0 -413.5 170t-169.5 416q0 247 169.5 417t413.5 170q246 0 415 -170t169 -417v-11q0 -21 -3 -43h-1017q15 -157 126 -272q129 -133 315 -133q133 0 233.5 67t161.5 196h149q-60 -175 -211 -282.5t-338 -107.5zM1096 635q-21 146 -123 252 q-127 133 -312 133q-184 0 -312 -134q-99 -105 -123 -251h870zM752 1564l295 -255h-183l-172 150l-180 -150h-189l295 255h67h67z" />
<glyph unicode="&#xeb;" horiz-adv-x="1331" d="M661 -26q-244 0 -413.5 170t-169.5 416q0 247 169.5 417t413.5 170q246 0 415 -170t169 -417v-11q0 -21 -3 -43h-1017q15 -157 126 -272q129 -133 315 -133q133 0 233.5 67t161.5 196h149q-60 -175 -211 -282.5t-338 -107.5zM1096 635q-21 146 -123 252 q-127 133 -312 133q-184 0 -312 -134q-99 -105 -123 -251h870zM458 1567h152v-258h-152v258zM759 1567h152v-258h-152v258z" />
<glyph unicode="&#xec;" horiz-adv-x="410" d="M70 0v1121h72h72v-1121h-72h-72zM284 1267l-406 220l67 122l404 -223z" />
<glyph unicode="&#xed;" horiz-adv-x="410" d="M133 0v1121h72h72v-1121h-72h-72zM15 1387l409 220l67 -122l-411 -218z" />
<glyph unicode="&#xee;" horiz-adv-x="410" d="M133 0v1121h72h72v-1121h-72h-72zM272 1564l295 -255h-183l-172 150l-180 -150h-189l295 255h67h67z" />
<glyph unicode="&#xef;" horiz-adv-x="410" d="M133 0v1121h72h72v-1121h-72h-72zM-22 1567h152v-258h-152v258zM279 1567h152v-258h-152v258z" />
<glyph unicode="&#xf0;" horiz-adv-x="1341" d="M671 -26q-245 0 -415 169t-170 414q0 240 173 412.5t412 172.5q173 0 303 -101q-25 35 -56 68q-101 112 -244 200l-321 -122l-103 75l303 114q-107 54 -233 96l151 65q127 -43 236 -102l276 104l98 -76l-259 -98q131 -90 227 -207q208 -252 208 -574q0 -256 -169.5 -433 t-416.5 -177zM230 557q0 -192 128 -324t313 -132q186 0 314 132t128 324q0 202 -124 330t-318 128t-318 -128q-123 -128 -123 -330z" />
<glyph unicode="&#xf1;" horiz-adv-x="1249" d="M133 0v1121h71h72v-145l23 28q118 146 327 146q232 0 362 -143t130 -398v-609h-72h-72v613q0 191 -92 299t-256 108q-168 0 -258.5 -109.5t-90.5 -312.5v-598h-72h-72zM272 1456q31 37 92 63t118 26q37 0 76 -11t94 -37q45 -21 71.5 -29t51.5 -8q24 0 62 15.5t70 37.5 l71 -101q-35 -33 -92.5 -55.5t-105.5 -22.5q-37 0 -71.5 9.5t-110.5 39.5q-61 24 -80.5 30t-35.5 6q-32 0 -72.5 -18.5t-66.5 -45.5z" />
<glyph unicode="&#xf2;" horiz-adv-x="1341" d="M671 -26q-245 0 -415 170t-170 416q0 247 170 417t415 170q247 0 416.5 -170t169.5 -417q0 -246 -169.5 -416t-416.5 -170zM671 101q186 0 314 133t128 326t-128 326.5t-314 133.5q-185 0 -313 -133.5t-128 -326.5t128 -326t313 -133zM813 1267l-406 220l67 122l404 -223 z" />
<glyph unicode="&#xf3;" horiz-adv-x="1341" d="M671 -26q-245 0 -415 170t-170 416q0 247 170 417t415 170q247 0 416.5 -170t169.5 -417q0 -246 -169.5 -416t-416.5 -170zM671 101q186 0 314 133t128 326t-128 326.5t-314 133.5q-185 0 -313 -133.5t-128 -326.5t128 -326t313 -133zM481 1387l409 220l67 -122 l-411 -218z" />
<glyph unicode="&#xf4;" horiz-adv-x="1341" d="M671 -26q-245 0 -415 170t-170 416q0 247 170 417t415 170q247 0 416.5 -170t169.5 -417q0 -246 -169.5 -416t-416.5 -170zM671 101q186 0 314 133t128 326t-128 326.5t-314 133.5q-185 0 -313 -133.5t-128 -326.5t128 -326t313 -133zM738 1564l295 -255h-183l-172 150 l-180 -150h-189l295 255h67h67z" />
<glyph unicode="&#xf5;" horiz-adv-x="1341" d="M671 -26q-245 0 -415 170t-170 416q0 247 170 417t415 170q247 0 416.5 -170t169.5 -417q0 -246 -169.5 -416t-416.5 -170zM671 101q186 0 314 133t128 326t-128 326.5t-314 133.5q-185 0 -313 -133.5t-128 -326.5t128 -326t313 -133zM318 1456q31 37 92 63t118 26 q37 0 76 -11t94 -37q45 -21 71.5 -29t51.5 -8q24 0 62 15.5t70 37.5l71 -101q-35 -33 -92.5 -55.5t-105.5 -22.5q-37 0 -71.5 9.5t-110.5 39.5q-61 24 -80.5 30t-35.5 6q-32 0 -72.5 -18.5t-66.5 -45.5z" />
<glyph unicode="&#xf6;" horiz-adv-x="1341" d="M671 -26q-245 0 -415 170t-170 416q0 247 170 417t415 170q247 0 416.5 -170t169.5 -417q0 -246 -169.5 -416t-416.5 -170zM671 101q186 0 314 133t128 326t-128 326.5t-314 133.5q-185 0 -313 -133.5t-128 -326.5t128 -326t313 -133zM444 1567h152v-258h-152v258z M745 1567h152v-258h-152v258z" />
<glyph unicode="&#xf7;" horiz-adv-x="1241" d="M544 224h152v-260h-152v260zM104 585h1032v-140h-1032v140zM544 1066h152v-260h-152v260z" />
<glyph unicode="&#xf8;" horiz-adv-x="1337" d="M669 489l-290 -279q121 -108 290 -109q186 0 314 133t128 326q0 156 -83 274zM669 -26q-225 0 -388 143l-121 -117l-76 70l127 122q-127 155 -127 368q0 247 170 417t415 170q227 0 387 -143l122 117l76 -70l-126 -121q127 -155 127 -370q0 -246 -169.5 -416t-416.5 -170 zM669 1020q-185 0 -313 -133.5t-128 -326.5q0 -155 83 -272l358 344l291 279q-123 109 -291 109z" />
<glyph unicode="&#xf9;" horiz-adv-x="1245" d="M271 1121v-665q0 -167 89 -260.5t247 -93.5q171 0 264 110t93 314v595h72h72v-1121h-67h-68v180q-17 -31 -40 -60q-116 -146 -322 -146q-228 0 -356 127t-128 352v668h72h72zM759 1267l-406 220l67 122l404 -223z" />
<glyph unicode="&#xfa;" horiz-adv-x="1245" d="M271 1121v-665q0 -167 89 -260.5t247 -93.5q171 0 264 110t93 314v595h72h72v-1121h-67h-68v180q-17 -31 -40 -60q-116 -146 -322 -146q-228 0 -356 127t-128 352v668h72h72zM427 1387l409 220l67 -122l-411 -218z" />
<glyph unicode="&#xfb;" horiz-adv-x="1245" d="M271 1121v-665q0 -167 89 -260.5t247 -93.5q171 0 264 110t93 314v595h72h72v-1121h-67h-68v180q-17 -31 -40 -60q-116 -146 -322 -146q-228 0 -356 127t-128 352v668h72h72zM684 1564l295 -255h-183l-172 150l-180 -150h-189l295 255h67h67z" />
<glyph unicode="&#xfc;" horiz-adv-x="1245" d="M271 1121v-665q0 -167 89 -260.5t247 -93.5q171 0 264 110t93 314v595h72h72v-1121h-67h-68v180q-17 -31 -40 -60q-116 -146 -322 -146q-228 0 -356 127t-128 352v668h72h72zM390 1567h152v-258h-152v258zM691 1567h152v-258h-152v258z" />
<glyph unicode="&#xfd;" horiz-adv-x="1098" d="M1071 1121l-657 -1519h-70h-71l192 449l-434 1070h78h78l352 -896l380 896h76h76zM361 1387l409 220l67 -122l-411 -218z" />
<glyph unicode="&#xfe;" horiz-adv-x="1397" d="M131 1515h72h72v-582l40 44q168 170 423 170q244 0 411.5 -170t167.5 -417q0 -246 -167.5 -416t-411.5 -170q-254 0 -422 171l-41 46v-585h-72h-72v1909zM721 101q190 0 321 133.5t131 327.5t-131 328t-321 134t-321 -133.5t-131 -327.5h1q0 -194 131 -328t320 -134z" />
<glyph unicode="&#xff;" horiz-adv-x="1098" d="M1071 1121l-657 -1519h-70h-71l192 449l-434 1070h78h78l352 -896l380 896h76h76zM324 1567h152v-258h-152v258zM625 1567h152v-258h-152v258z" />
<glyph unicode="&#x131;" horiz-adv-x="410" d="M133 0v1121h72h72v-1121h-72h-72z" />
<glyph unicode="&#x152;" horiz-adv-x="2445" d="M890 1541q336 0 567 -228q46 -45 82 -94v296h152h648v-68v-69h-648v-545h628v-68v-69h-628v-559h648v-68v-69h-648h-152v298q-36 -49 -84 -96q-232 -228 -565 -228q-335 0 -566.5 227t-231.5 556t232 557q231 227 566 227zM893 1408q-271 0 -459 -189t-188 -462t188 -461 t459 -188q266 0 457 191.5t191 457.5q0 267 -191 459t-457 192z" />
<glyph unicode="&#x153;" horiz-adv-x="2329" d="M657 1147q238 0 413 -175q59 -59 98 -126q42 68 100 127q173 174 409 174q246 0 415 -170t169 -417q1 -27 -3 -54h-1015q15 -157 126 -272q129 -133 316 -133q131 0 231 67t161 196h149q-60 -175 -211 -282.5t-338 -107.5q-242 0 -413 172q-59 59 -97 127 q-39 -67 -98 -125q-174 -174 -412 -174q-246 0 -416.5 170t-170.5 416q0 247 171 417q170 170 416 170zM657 1020q-186 0 -314.5 -133.5t-128.5 -326.5t128.5 -326t314.5 -133t314.5 133t128.5 326t-129 327q-128 133 -314 133zM2117 635q-21 146 -123 252 q-128 133 -313 133t-313 -134q-101 -105 -124 -251h873z" />
<glyph unicode="&#x178;" horiz-adv-x="1212" d="M531 507l-529 1008h87h88l435 -861l431 861h84h85l-529 -1009v-506h-76h-76v507zM380 1900h152v-258h-152v258zM681 1900h152v-258h-152v258z" />
<glyph unicode="&#x2c6;" horiz-adv-x="1028" d="M581 1564l295 -255h-183l-172 150l-180 -150h-189l295 255h67h67z" />
<glyph unicode="&#x2dc;" horiz-adv-x="899" d="M96 1456q31 37 92 63t118 26q37 0 76 -11t94 -37q45 -21 71.5 -29t51.5 -8q24 0 62 15.5t70 37.5l71 -101q-35 -33 -92.5 -55.5t-105.5 -22.5q-37 0 -71.5 9.5t-110.5 39.5q-61 24 -80.5 30t-35.5 6q-32 0 -72.5 -18.5t-66.5 -45.5z" />
<glyph unicode="&#x2000;" horiz-adv-x="978" />
<glyph unicode="&#x2001;" horiz-adv-x="1956" />
<glyph unicode="&#x2002;" horiz-adv-x="978" />
<glyph unicode="&#x2003;" horiz-adv-x="1956" />
<glyph unicode="&#x2004;" horiz-adv-x="652" />
<glyph unicode="&#x2005;" horiz-adv-x="489" />
<glyph unicode="&#x2006;" horiz-adv-x="326" />
<glyph unicode="&#x2007;" horiz-adv-x="326" />
<glyph unicode="&#x2008;" horiz-adv-x="244" />
<glyph unicode="&#x2009;" horiz-adv-x="391" />
<glyph unicode="&#x200a;" horiz-adv-x="108" />
<glyph unicode="&#x2010;" horiz-adv-x="680" d="M61 645h558v-137h-558v137z" />
<glyph unicode="&#x2011;" horiz-adv-x="680" d="M61 645h558v-137h-558v137z" />
<glyph unicode="&#x2012;" horiz-adv-x="680" d="M61 645h558v-137h-558v137z" />
<glyph unicode="&#x2013;" horiz-adv-x="1024" d="M72 645h880v-137h-880v137z" />
<glyph unicode="&#x2014;" horiz-adv-x="2048" d="M72 645h1904v-137h-1904v137z" />
<glyph unicode="&#x2018;" horiz-adv-x="719" d="M374 1118l-179 397h152l179 -397h-152z" />
<glyph unicode="&#x2019;" horiz-adv-x="719" d="M193 1118l179 397h152l-179 -397h-152z" />
<glyph unicode="&#x201a;" horiz-adv-x="725" d="M182 -139l179 397h152l-179 -397h-152z" />
<glyph unicode="&#x201c;" horiz-adv-x="1028" d="M378 1118l-179 397h152l179 -397h-152zM679 1118l-179 397h152l179 -397h-152z" />
<glyph unicode="&#x201d;" horiz-adv-x="991" d="M197 1118l179 397h152l-179 -397h-152zM498 1118l179 397h152l-179 -397h-152z" />
<glyph unicode="&#x201e;" horiz-adv-x="1028" d="M182 -139l179 397h152l-179 -397h-152zM486 -139l179 397h152l-179 -397h-152z" />
<glyph unicode="&#x2022;" horiz-adv-x="1241" d="M619 1089q131 0 221.5 -92.5t90.5 -226.5t-90.5 -226t-221.5 -92t-221.5 92t-90.5 226t90.5 226.5t221.5 92.5z" />
<glyph unicode="&#x2026;" horiz-adv-x="2048" d="M266 258h152v-258h-152v258zM948 258h152v-258h-152v258zM1630 258h152v-258h-152v258z" />
<glyph unicode="&#x202f;" horiz-adv-x="391" />
<glyph unicode="&#x2039;" horiz-adv-x="514" d="M434 919l-194 -344l194 -345l-119 -68l-233 413l233 412z" />
<glyph unicode="&#x203a;" horiz-adv-x="514" d="M80 230l194 344l-194 345l119 68l233 -413l-233 -412z" />
<glyph unicode="&#x205f;" horiz-adv-x="489" />
<glyph unicode="&#x20ac;" horiz-adv-x="1135" d="M1109 397q-20 -184 -145.5 -303.5t-299.5 -119.5q-244 0 -383 208q-96 147 -127 369h-154l30 137h113v69q-1 36 2 69h-145l30 137h127q33 210 132 359q146 219 375 219q171 0 296.5 -117t148.5 -298h-157q-32 134 -107 206.5t-181 72.5q-165 0 -266 -178 q-61 -110 -88 -264h502l-30 -137h-484l-1 -69v-69h454l-30 -137h-409q23 -151 86 -263q101 -178 266 -178q108 0 183.5 74.5t106.5 212.5h155z" />
<glyph unicode="&#x2122;" horiz-adv-x="2048" d="M238 606v811h-220v49v49h548v-49v-49h-219v-811h-54h-55zM791 606h-54h-55v909h78h78l339 -750l338 750h78h78v-909h-54h-55v763l-345 -763h-40h-40l-346 765v-765z" />
<glyph unicode="&#x2215;" horiz-adv-x="340" d="M572 1515l-681 -1515h-121l681 1515h121z" />
<glyph unicode="&#xe000;" horiz-adv-x="1120" d="M0 1120h1120v-1120h-1120v1120z" />
<glyph unicode="&#xfb01;" horiz-adv-x="997" d="M358 992v-992h-72h-72v992h-175v129h175v23q0 191 103 294t293 103h33v-127q-144 -1 -214.5 -62.5t-70.5 -190.5v-40h506v-1121h-72h-72v992h-362zM721 1515h142v-257h-142v257z" />
<glyph unicode="&#xfb02;" horiz-adv-x="1053" d="M776 0v1515h72h72v-1515h-72h-72zM358 992v-992h-72h-72v992h-175v129h175v23q0 191 103 294t293 103h33v-127q-145 -1 -215 -62.5t-70 -190.5v-40h285v-129h-285z" />
<glyph unicode="&#xfb03;" horiz-adv-x="1696" d="M1419 0v1121h72h72v-1121h-72h-72zM1420 1515h142v-257h-142v257zM1001 992v-992h-72h-72v992h-175v129h175v23q0 191 103 294t293 103h33v-127q-145 -1 -215 -62.5t-70 -190.5v-40h285v-129h-285zM358 992v-992h-72h-72v992h-175v129h175v23q0 191 103 294t293 103h33 v-127q-145 -1 -215 -62.5t-70 -190.5v-40h285v-129h-285z" />
<glyph unicode="&#xfb04;" horiz-adv-x="1696" d="M1419 0v1515h72h72v-1515h-72h-72zM1001 992v-992h-72h-72v992h-175v129h175v23q0 191 103 294t293 103h33v-127q-145 -1 -215 -62.5t-70 -190.5v-40h285v-129h-285zM358 992v-992h-72h-72v992h-175v129h175v23q0 191 103 294t293 103h33v-127q-145 -1 -215 -62.5 t-70 -190.5v-40h285v-129h-285z" />
<glyph d="M0 1539q328 0 554.5 -226.5t226.5 -554.5t-226.5 -554.5t-554.5 -226.5t-554.5 226.5t-226.5 554.5t226.5 554.5t554.5 226.5zM672 758q0 282 -194.5 476.5t-477.5 194.5t-477.5 -194.5t-194.5 -476.5t195 -476.5t477 -194.5t477 194.5t195 476.5z" />
<glyph d="M399 603q-14 -129 -127 -220.5t-260 -91.5q-195 0 -319.5 130.5t-124.5 335.5q0 206 124.5 336.5t319.5 130.5q150 0 261.5 -88.5t125.5 -219.5h-113q-23 100 -92.5 152t-181.5 52q-150 0 -238 -98t-88 -265q0 -163 89.5 -262.5t236.5 -99.5q109 0 180.5 54t93.5 154h113 z" />
<glyph d="M0 1539q328 0 554.5 -226.5t226.5 -554.5t-226.5 -554.5t-554.5 -226.5t-554.5 226.5t-226.5 554.5t226.5 554.5t554.5 226.5zM668 758q0 286 -193.5 483.5t-474.5 197.5t-474.5 -197.5t-193.5 -483.5t194 -483.5t474 -197.5t474 197.5t194 483.5z" />
<glyph d="M-334 304v893h56h297q175 0 255.5 -58t80.5 -183q0 -129 -78 -184q-34 -24 -86 -37q59 -16 93 -50q51 -53 58 -173l8 -120q3 -37 7 -57t12 -31h-56h-56q-8 15 -12.5 41.5t-8.5 74.5l-5 71q-7 115 -52.5 153t-175.5 38h-225v-378h-56h-56zM-222 782h222q123 0 182.5 40 t59.5 124q0 74 -54.5 110t-168.5 36h-241v-310z" />
<glyph horiz-adv-x="680" d="M284 606v797h-155v112h278v-909h-61h-62z" />
<glyph horiz-adv-x="680" d="M458 765h-452v53v54l442 643h66h67v-639h86v-111h-86v-159h-123v159zM458 876v454l-312 -454h312z" />
<glyph horiz-adv-x="680" d="M284 606v797h-155v112h278v-909h-61h-62z" />
<glyph horiz-adv-x="680" d="M651 1247q0 -92 -62 -172q-62 -79 -313 -307l-56 -51h431v-111h-612v52v53l158 144q222 202 277 268q55 65 55 129q0 70 -52 118t-128 48q-84 0 -135 -62t-44 -155h-119q-2 146 81 237.5t219 91.5q126 0 213 -82t87 -201z" />
<glyph horiz-adv-x="680" d="M467 1297q0 52 -37.5 86.5t-93.5 34.5q-52 0 -86 -42.5t-35 -108.5h-117q4 117 72.5 190t174.5 73q107 0 177.5 -64.5t70.5 -162.5q0 -90 -75 -158l-19 -16q35 -18 65 -46q87 -82 87 -206q0 -123 -87.5 -204.5t-219.5 -81.5q-140 0 -222.5 85.5t-84.5 233.5h121 q0 -87 52.5 -147t128.5 -60q80 0 133.5 51.5t53.5 128.5q0 78 -53.5 130t-133.5 52h-72v112h69q56 0 94 34q37 34 37 86z" />
<glyph horiz-adv-x="680" d="M458 765h-452v53v54l442 643h66h67v-639h86v-111h-86v-159h-123v159zM458 876v454l-312 -454h312z" />
<glyph d="M142 -42l-406 220l67 122l404 -223z" />
<glyph d="M-190 78l409 220l67 -122l-411 -218z" />
<glyph d="M67 255l295 -255h-183l-172 150l-180 -150h-189l295 255h67h67z" />
<glyph d="M-353 147q31 37 92 63t118 26q37 0 76 -11t94 -37q45 -21 71.5 -29t51.5 -8q24 0 62 15.5t70 37.5l71 -101q-35 -33 -92.5 -55.5t-105.5 -22.5q-37 0 -71.5 9.5t-110.5 39.5q-61 24 -80.5 30t-35.5 6q-32 0 -72.5 -18.5t-66.5 -45.5z" />
<glyph d="M-227 258h152v-258h-152v258zM74 258h152v-258h-152v258z" />
<glyph d="M0 -110q-89 0 -150.5 61.5t-61.5 150.5t61.5 150.5t150.5 61.5t150.5 -61.5t61.5 -150.5t-61.5 -150.5t-150.5 -61.5zM0 -3q45 0 75.5 30.5t30.5 74.5t-30.5 74.5t-75.5 30.5t-75.5 -30.5t-30.5 -74.5t30.5 -74.5t75.5 -30.5z" />
<glyph d="M-21 0l-49 -118q39 14 66 14q67 0 113 -48.5t46 -119.5q0 -76 -50.5 -129t-124.5 -53q-72 0 -119 38t-63 109l85 9q12 -39 36.5 -60t58.5 -21q41 0 66.5 29t25.5 77q0 44 -25 70.5t-66 26.5q-29 0 -55.5 -13t-36.5 -32l-77 39l83 182h86z" />
<glyph d="M142 -42l-406 220l67 122l404 -223z" />
<glyph d="M-190 78l409 220l67 -122l-411 -218z" />
<glyph d="M67 255l295 -255h-183l-172 150l-180 -150h-189l295 255h67h67z" />
<glyph d="M-353 147q31 37 92 63t118 26q37 0 76 -11t94 -37q45 -21 71.5 -29t51.5 -8q24 0 62 15.5t70 37.5l71 -101q-35 -33 -92.5 -55.5t-105.5 -22.5q-37 0 -71.5 9.5t-110.5 39.5q-61 24 -80.5 30t-35.5 6q-32 0 -72.5 -18.5t-66.5 -45.5z" />
<glyph d="M-227 258h152v-258h-152v258zM74 258h152v-258h-152v258z" />
<glyph d="M-16 -80q-89 0 -150.5 61.5t-61.5 150.5t61.5 150.5t150.5 61.5t150.5 -61.5t61.5 -150.5t-61.5 -150.5t-150.5 -61.5zM-16 27q45 0 75.5 30.5t30.5 74.5t-30.5 74.5t-75.5 30.5t-75.5 -30.5t-30.5 -74.5t30.5 -74.5t75.5 -30.5z" />
<glyph d="M-3 0l-49 -118q39 14 66 14q67 0 113 -48.5t46 -119.5q0 -76 -50.5 -129t-124.5 -53q-72 0 -119 38t-63 109l85 9q12 -39 36.5 -60t58.5 -21q41 0 66.5 29t25.5 77q0 44 -25 70.5t-66 26.5q-29 0 -55.5 -13t-36.5 -32l-77 39l83 182h86z" />
<glyph d="M-54 606v811h-220v49v49h548v-49v-49h-219v-811h-54h-55z" />
<glyph d="M-386 606h-54h-55v909h78h78l339 -750l338 750h78h78v-909h-54h-55v763l-345 -763h-40h-40l-346 765v-765z" />
</font>
</defs>
</svg>
